<svg width="696" height="181" viewBox="0 0 696 181" fill="none" xmlns="http://www.w3.org/2000/svg">
<g clip-path="url(#clip0_2_19)">
<path fill-rule="evenodd" clip-rule="evenodd" d="M169.156 47.8311C177.041 53.3265 188.987 65.273 194.244 71.7241C199.022 77.4584 200.217 86.5377 196.872 93.7056C194.005 100.873 188.031 105.413 179.908 106.608C168.678 108.28 153.148 110.431 139.29 112.342L130.21 113.537C124.476 114.254 113.963 115.687 102.734 116.882C90.3092 118.315 77.646 119.749 70.717 120.705V127.634C70.717 133.846 65.6995 138.863 59.2484 138.863C57.8148 138.863 56.3812 138.624 55.1866 138.146V139.341C55.1866 146.509 49.6912 152.004 42.7623 152.004C36.0723 152.004 31.0547 146.509 31.0547 139.341V127.634C31.0547 127.872 30.8158 127.872 30.5769 127.872C25.5594 129.067 20.5418 130.023 14.3297 130.74H11.9404C5.48929 130.74 0.710702 127.634 -0.722878 122.616C-2.87324 115.448 1.90534 107.325 12.1793 100.635C20.5418 95.3781 43.4791 81.998 65.9384 69.0958C81.2299 60.2554 95.8046 51.8929 103.689 47.1143C104.406 43.5304 106.079 40.1854 108.468 36.8404C113.246 31.345 121.131 28 129.016 28C133.078 28 136.9 28.9557 140.484 30.3893C151.953 35.1679 158.882 40.4243 165.094 44.9639C166.528 45.9197 167.722 46.8754 169.156 47.8311ZM129.733 106.847C144.785 104.696 165.333 102.068 179.191 99.9177C193.766 97.7674 193.527 81.998 188.987 76.2637C188.27 75.308 187.315 74.1134 186.12 72.9187C185.642 72.6798 185.164 72.4408 184.447 72.2019C183.731 71.963 183.014 71.7241 182.058 71.4851C181.341 71.2462 180.147 71.0073 179.191 71.0073C177.996 71.0073 177.041 71.0073 175.846 71.2462C174.651 71.4851 173.457 71.7241 172.262 72.2019C169.873 73.1576 167.722 74.3523 165.811 76.2637C164.855 76.9805 164.138 78.1752 163.422 79.1309C162.944 80.0866 162.227 81.0423 161.988 82.2369C161.271 84.6262 161.271 86.7766 161.749 88.927C161.988 89.8827 162.466 90.8384 162.705 91.7941C162.944 92.7498 163.422 93.4666 163.661 94.1834L164.377 94.9002C165.094 95.617 165.333 96.8116 164.616 97.5284C164.138 98.0063 163.661 98.2452 163.183 98.2452C162.705 98.2452 162.227 98.0063 161.988 97.7673C161.51 97.5284 122.565 64.0783 117.308 60.0165C116.591 59.2997 116.353 58.1051 117.069 57.3883C117.786 56.6715 118.981 56.4326 119.698 57.1493C123.52 60.2554 145.263 78.653 156.971 88.688C156.732 88.2102 156.493 87.4934 156.254 86.7766C156.015 85.1041 155.776 83.4316 156.015 81.5201C156.254 77.9362 158.165 74.1133 161.032 71.4851C163.9 68.8569 167.245 67.1844 170.828 66.4676C172.501 65.9897 174.173 65.9897 175.846 66.2286C177.518 66.4676 178.952 66.9454 180.147 67.4233C180.147 67.4233 180.386 67.6622 180.625 67.6622C175.368 62.6447 169.395 57.1493 165.094 54.0433C157.926 48.7868 150.997 42.8136 137.856 37.3182C134.989 36.1235 132.122 35.6457 129.255 35.6457C118.503 35.6457 109.901 43.5303 110.857 51.6539C95.8046 61.2111 31.0548 97.5284 16.4801 107.086C4.53359 114.97 3.33894 124.05 12.4183 124.05H14.0908C21.9754 123.094 27.7098 121.66 35.5944 119.988H36.0723C37.5059 119.988 38.7005 121.182 38.7005 122.616V139.819C38.7005 143.642 40.8509 145.314 43.2402 145.314C45.8684 145.314 48.4966 143.164 48.4966 139.819V120.705C48.4966 118.076 50.4081 116.882 52.3195 116.882C53.992 116.882 55.4256 117.837 55.4256 119.749V127.395C55.4256 130.74 57.5759 132.173 59.7263 132.173C61.8767 132.173 64.027 130.74 64.027 128.111V118.793C64.027 116.404 65.4606 114.492 67.8499 114.253C79.3185 112.581 117.069 108.519 129.733 106.847ZM110.857 67.9012C111.096 70.2905 105.84 72.9187 99.1496 73.8744C92.4596 75.0691 86.7253 74.1133 86.2474 71.7241C86.0085 69.3348 91.2649 66.7065 97.9549 65.7508C104.645 64.7951 110.618 65.7508 110.857 67.9012ZM103.45 80.3255C118.025 78.653 134.033 79.6087 135.228 86.0598C135.228 86.5377 135.228 87.0155 135.467 87.2545V89.8827C135.945 94.4223 123.52 99.4399 107.512 101.59C91.5039 103.741 75.7345 103.263 74.7788 98.2452L74.062 93.9445C73.5842 90.8384 76.6902 87.9713 82.9024 85.343C88.1588 83.1927 95.5657 81.2812 103.45 80.3255ZM85.0528 96.5727C90.5481 97.2895 97.716 97.2895 105.362 96.3338C122.804 93.9445 131.883 88.688 131.405 86.7766C131.405 85.1041 125.671 83.1927 115.636 83.1927C112.291 83.1927 108.229 83.4316 103.689 83.9095C96.2825 84.8652 89.1146 86.5377 84.0971 88.688C78.3627 91.0773 77.407 92.9888 77.407 93.4666C77.407 94.1834 79.0795 95.617 85.0528 96.5727ZM36.5501 100.873C35.8333 96.8117 42.7623 93.9445 49.6912 92.9888C56.6202 92.0331 63.788 92.7498 64.7438 96.5727C65.4605 100.635 58.5316 103.502 51.6026 104.457C49.6912 104.696 47.7798 104.935 45.8683 104.935C41.0897 104.935 37.028 103.741 36.5501 100.873ZM40.134 100.396C41.0898 101.112 44.6737 102.068 50.8859 101.112C57.098 100.157 60.2041 98.0063 60.9209 97.2895C59.9652 96.5727 56.3812 95.617 50.1691 96.5727C43.9569 97.5284 40.8508 99.4399 40.134 100.396Z" fill="#F093A2"/>
<path d="M99.1496 73.8744C105.84 72.9187 111.096 70.2905 110.857 67.9012C110.618 65.7508 104.645 64.7951 97.9549 65.7508C91.2649 66.7065 86.0085 69.3348 86.2474 71.7241C86.7253 74.1133 92.4596 75.0691 99.1496 73.8744Z" fill="#A7D9CE"/>
<path d="M135.228 86.0598C134.033 79.6087 118.025 78.653 103.45 80.3255C95.5657 81.2812 88.1588 83.1927 82.9024 85.343C76.6902 87.9713 73.5842 90.8384 74.062 93.9445L74.7788 98.2452C75.7345 103.263 91.5039 103.741 107.512 101.59C123.52 99.4399 135.945 94.4223 135.467 89.8827V87.2545C135.228 87.0155 135.228 86.5377 135.228 86.0598Z" fill="#A7D9CE"/>
<path d="M105.362 96.3338C97.716 97.2895 90.5481 97.2895 85.0528 96.5727C79.0795 95.617 77.407 94.1834 77.407 93.4666C77.407 92.9888 78.3627 91.0773 84.0971 88.688C89.1146 86.5377 96.2825 84.8652 103.689 83.9095C108.229 83.4316 112.291 83.1927 115.636 83.1927C125.671 83.1927 131.405 85.1041 131.405 86.7766C131.883 88.688 122.804 93.9445 105.362 96.3338Z" fill="#252B31"/>
<path d="M49.6912 92.9888C42.7623 93.9445 35.8333 96.8117 36.5501 100.873C37.028 103.741 41.0897 104.935 45.8683 104.935C47.7798 104.935 49.6912 104.696 51.6026 104.457C58.5316 103.502 65.4605 100.635 64.7438 96.5727C63.788 92.7498 56.6202 92.0331 49.6912 92.9888Z" fill="#A7D9CE"/>
</g>
<path d="M237.25 83H232.795L249.727 36.4545H254.273L271.205 83H266.75L252.159 41.9773H251.841L237.25 83ZM240.455 65.1591H263.545V68.9773H240.455V65.1591ZM315.432 36.4545V83H311.295L283.795 44.0227H283.432V83H279.182V36.4545H283.295L310.886 75.4773H311.25V36.4545H315.432ZM324.989 40.2727V36.4545H358.739V40.2727H343.989V83H339.739V40.2727H324.989ZM404.528 59.7273C404.528 64.5758 403.665 68.7955 401.938 72.3864C400.21 75.9621 397.831 78.7348 394.801 80.7045C391.786 82.6591 388.316 83.6364 384.392 83.6364C380.468 83.6364 376.991 82.6591 373.96 80.7045C370.945 78.7348 368.574 75.9621 366.847 72.3864C365.134 68.7955 364.278 64.5758 364.278 59.7273C364.278 54.8788 365.134 50.6667 366.847 47.0909C368.574 43.5 370.953 40.7273 373.983 38.7727C377.013 36.803 380.483 35.8182 384.392 35.8182C388.316 35.8182 391.786 36.803 394.801 38.7727C397.831 40.7273 400.21 43.5 401.938 47.0909C403.665 50.6667 404.528 54.8788 404.528 59.7273ZM400.392 59.7273C400.392 55.5606 399.695 51.9924 398.301 49.0227C396.907 46.0379 395.006 43.7576 392.597 42.1818C390.188 40.6061 387.453 39.8182 384.392 39.8182C381.347 39.8182 378.619 40.6061 376.21 42.1818C373.801 43.7576 371.892 46.0303 370.483 49C369.089 51.9697 368.392 55.5455 368.392 59.7273C368.392 63.8939 369.089 67.4621 370.483 70.4318C371.877 73.4015 373.778 75.6818 376.188 77.2727C378.597 78.8485 381.331 79.6364 384.392 79.6364C387.453 79.6364 390.188 78.8485 392.597 77.2727C395.021 75.697 396.93 73.4242 398.324 70.4545C399.718 67.4697 400.407 63.8939 400.392 59.7273ZM451.057 36.4545V83H446.92L419.42 44.0227H419.057V83H414.807V36.4545H418.92L446.511 75.4773H446.875V36.4545H451.057ZM467.682 36.4545V83H463.432V36.4545H467.682ZM518.216 59.7273C518.216 64.5758 517.352 68.7955 515.625 72.3864C513.898 75.9621 511.519 78.7348 508.489 80.7045C505.473 82.6591 502.004 83.6364 498.08 83.6364C494.155 83.6364 490.678 82.6591 487.648 80.7045C484.633 78.7348 482.261 75.9621 480.534 72.3864C478.822 68.7955 477.966 64.5758 477.966 59.7273C477.966 54.8788 478.822 50.6667 480.534 47.0909C482.261 43.5 484.64 40.7273 487.67 38.7727C490.701 36.803 494.17 35.8182 498.08 35.8182C502.004 35.8182 505.473 36.803 508.489 38.7727C511.519 40.7273 513.898 43.5 515.625 47.0909C517.352 50.6667 518.216 54.8788 518.216 59.7273ZM514.08 59.7273C514.08 55.5606 513.383 51.9924 511.989 49.0227C510.595 46.0379 508.693 43.7576 506.284 42.1818C503.875 40.6061 501.14 39.8182 498.08 39.8182C495.034 39.8182 492.307 40.6061 489.898 42.1818C487.489 43.7576 485.58 46.0303 484.17 49C482.777 51.9697 482.08 55.5455 482.08 59.7273C482.08 63.8939 482.777 67.4621 484.17 70.4318C485.564 73.4015 487.466 75.6818 489.875 77.2727C492.284 78.8485 495.019 79.6364 498.08 79.6364C501.14 79.6364 503.875 78.8485 506.284 77.2727C508.708 75.697 510.617 73.4242 512.011 70.4545C513.405 67.4697 514.095 63.8939 514.08 59.7273ZM531.335 36.4545V40.5455C531.335 41.7879 531.108 43.1136 530.653 44.5227C530.214 45.9167 529.563 47.2727 528.699 48.5909C527.85 49.8939 526.82 51.0303 525.608 52L523.403 50.0682C524.54 48.7348 525.502 47.2576 526.29 45.6364C527.078 44 527.472 42.3258 527.472 40.6136V36.4545H531.335ZM564.955 48.0909C564.697 45.5 563.553 43.4394 561.523 41.9091C559.492 40.3788 556.939 39.6136 553.864 39.6136C551.697 39.6136 549.788 39.9848 548.136 40.7273C546.5 41.4697 545.212 42.5 544.273 43.8182C543.348 45.1212 542.886 46.6061 542.886 48.2727C542.886 49.5 543.152 50.5758 543.682 51.5C544.212 52.4242 544.924 53.2197 545.818 53.8864C546.727 54.5379 547.727 55.0985 548.818 55.5682C549.924 56.0379 551.038 56.4318 552.159 56.75L557.068 58.1591C558.553 58.5682 560.038 59.0909 561.523 59.7273C563.008 60.3636 564.364 61.1667 565.591 62.1364C566.833 63.0909 567.826 64.2652 568.568 65.6591C569.326 67.0379 569.705 68.697 569.705 70.6364C569.705 73.1212 569.061 75.3561 567.773 77.3409C566.485 79.3258 564.636 80.9015 562.227 82.0682C559.818 83.2197 556.932 83.7955 553.568 83.7955C550.402 83.7955 547.652 83.2727 545.318 82.2273C542.985 81.1667 541.152 79.7045 539.818 77.8409C538.485 75.9773 537.735 73.8182 537.568 71.3636H541.932C542.083 73.197 542.689 74.75 543.75 76.0227C544.811 77.2955 546.189 78.2652 547.886 78.9318C549.583 79.5833 551.477 79.9091 553.568 79.9091C555.886 79.9091 557.947 79.5227 559.75 78.75C561.568 77.9621 562.992 76.8712 564.023 75.4773C565.068 74.0682 565.591 72.4318 565.591 70.5682C565.591 68.9924 565.182 67.6742 564.364 66.6136C563.545 65.5379 562.402 64.6364 560.932 63.9091C559.477 63.1818 557.788 62.5379 555.864 61.9773L550.295 60.3409C546.644 59.25 543.811 57.7424 541.795 55.8182C539.78 53.8939 538.773 51.4394 538.773 48.4545C538.773 45.9545 539.439 43.7576 540.773 41.8636C542.121 39.9545 543.939 38.4697 546.227 37.4091C548.53 36.3333 551.114 35.7955 553.977 35.7955C556.871 35.7955 559.432 36.3258 561.659 37.3864C563.886 38.447 565.652 39.9091 566.955 41.7727C568.273 43.6212 568.977 45.7273 569.068 48.0909H564.955Z" fill="#F093A2"/>
<path d="M236.114 145V98.4545H252.705C256.326 98.4545 259.326 99.1136 261.705 100.432C264.083 101.75 265.864 103.553 267.045 105.841C268.227 108.114 268.818 110.674 268.818 113.523C268.818 116.386 268.22 118.962 267.023 121.25C265.841 123.523 264.053 125.326 261.659 126.659C259.28 127.977 256.288 128.636 252.682 128.636H241.273V122.682H252.045C254.333 122.682 256.189 122.288 257.614 121.5C259.038 120.697 260.083 119.606 260.75 118.227C261.417 116.848 261.75 115.28 261.75 113.523C261.75 111.765 261.417 110.205 260.75 108.841C260.083 107.477 259.03 106.409 257.591 105.636C256.167 104.864 254.288 104.477 251.955 104.477H243.136V145H236.114ZM284.074 98.4545V145H277.051V98.4545H284.074ZM293.097 145V140.318L317.574 104.5H292.892V98.4545H326.165V103.136L301.688 138.955H326.369V145H293.097ZM333.972 145V140.318L358.449 104.5H333.767V98.4545H367.04V103.136L342.562 138.955H367.244V145H333.972ZM379.983 145H372.528L389.278 98.4545H397.392L414.142 145H406.688L393.528 106.909H393.165L379.983 145ZM381.233 126.773H405.415V132.682H381.233V126.773Z" fill="#A7D9CE"/>
<defs>
<clipPath id="clip0_2_19">
<rect width="200" height="124.004" fill="white" transform="translate(0 28)"/>
</clipPath>
</defs>
</svg>
